<svg width="16" height="16" viewBox="0 0 16 16" fill="none" xmlns="http://www.w3.org/2000/svg">
<path d="M5.33325 1.33333V3.33333" stroke="#787486" stroke-width="1.3" stroke-miterlimit="10" stroke-linecap="round" stroke-linejoin="round"/>
<path d="M10.6667 1.33333V3.33333" stroke="#787486" stroke-width="1.3" stroke-miterlimit="10" stroke-linecap="round" stroke-linejoin="round"/>
<path d="M10.6667 2.33333C12.8867 2.45333 14 3.3 14 6.43333V10.5533C14 13.3 13.3333 14.6733 10 14.6733H6C2.66667 14.6733 2 13.3 2 10.5533V6.43333C2 3.3 3.11333 2.46 5.33333 2.33333H10.6667Z" stroke="#787486" stroke-width="1.3" stroke-miterlimit="10" stroke-linecap="round" stroke-linejoin="round"/>
<path d="M13.8334 11.7333H2.16675" stroke="#787486" stroke-width="1.3" stroke-miterlimit="10" stroke-linecap="round" stroke-linejoin="round"/>
<path d="M7.99992 5.5C7.17992 5.5 6.48658 5.94667 6.48658 6.81333C6.48658 7.22667 6.67992 7.54 6.97325 7.74C6.56659 7.98 6.33325 8.36667 6.33325 8.82C6.33325 9.64667 6.96659 10.16 7.99992 10.16C9.02659 10.16 9.66659 9.64667 9.66659 8.82C9.66659 8.36667 9.43325 7.97333 9.01992 7.74C9.31992 7.53333 9.50659 7.22667 9.50659 6.81333C9.50659 5.94667 8.81992 5.5 7.99992 5.5ZM7.99992 7.39333C7.65325 7.39333 7.39992 7.18667 7.39992 6.86C7.39992 6.52667 7.65325 6.33333 7.99992 6.33333C8.34659 6.33333 8.59992 6.52667 8.59992 6.86C8.59992 7.18667 8.34659 7.39333 7.99992 7.39333ZM7.99992 9.33333C7.55992 9.33333 7.23992 9.11333 7.23992 8.71333C7.23992 8.31333 7.55992 8.1 7.99992 8.1C8.43992 8.1 8.75992 8.32 8.75992 8.71333C8.75992 9.11333 8.43992 9.33333 7.99992 9.33333Z" fill="#787486"/>
</svg>
