<svg width="14" height="15" viewBox="0 0 14 15" fill="none" xmlns="http://www.w3.org/2000/svg">
<path d="M2.59993 1.00001H11.3999C12.1333 1.00001 12.7333 1.60001 12.7333 2.33334V3.80001C12.7333 4.33334 12.3999 5.00001 12.0666 5.33334L9.19993 7.86667C8.79993 8.20001 8.53327 8.86667 8.53327 9.40001V12.2667C8.53327 12.6667 8.2666 13.2 7.93327 13.4L6.99994 14C6.13327 14.5333 4.93327 13.9333 4.93327 12.8667V9.33334C4.93327 8.86667 4.6666 8.26667 4.39994 7.93334L1.8666 5.26667C1.53327 4.93334 1.2666 4.33334 1.2666 3.93334V2.40001C1.2666 1.60001 1.8666 1.00001 2.59993 1.00001Z" stroke="#787486" stroke-width="1.3" stroke-miterlimit="10" stroke-linecap="round" stroke-linejoin="round"/>
</svg>
