<svg width="12" height="13" viewBox="0 0 12 13" fill="none" xmlns="http://www.w3.org/2000/svg">
<path d="M10.4 1.87499V12.1937H2.06567C1.7499 12.1937 1.44706 12.0683 1.22377 11.845C1.00049 11.6217 0.875048 11.3189 0.875048 11.0031C0.875048 10.6873 1.00049 10.3845 1.22377 10.1612C1.44706 9.93792 1.7499 9.81248 2.06567 9.81248H9.60629V0.287487H1.6688C0.795673 0.287487 0.0812988 1.00186 0.0812988 1.87499V11.4C0.0812988 12.2731 0.795673 12.9875 1.6688 12.9875H11.1938V1.87499H10.4Z" fill="white"/>
<path d="M2.06637 10.6062H2.06558C1.96032 10.6062 1.85937 10.6481 1.78494 10.7225C1.71051 10.7969 1.6687 10.8979 1.6687 11.0031C1.6687 11.1084 1.71051 11.2093 1.78494 11.2837C1.85937 11.3582 1.96032 11.4 2.06558 11.4H9.6054V10.6062H2.06637Z" fill="white"/>
</svg>
