<svg width="21" height="20" viewBox="0 0 21 20" fill="none" xmlns="http://www.w3.org/2000/svg">
<path d="M10.5 0C4.97581 0 0.5 4.47581 0.5 10C0.5 15.5242 4.97581 20 10.5 20C16.0242 20 20.5 15.5242 20.5 10C20.5 4.47581 16.0242 0 10.5 0ZM12.8024 14.1169L9.24597 11.5323C9.12097 11.4395 9.04839 11.2944 9.04839 11.1411V4.35484C9.04839 4.08871 9.26613 3.87097 9.53226 3.87097H11.4677C11.7339 3.87097 11.9516 4.08871 11.9516 4.35484V9.90726L14.5121 11.7702C14.7298 11.9274 14.7742 12.2298 14.6169 12.4476L13.4798 14.0121C13.3226 14.2258 13.0202 14.2742 12.8024 14.1169Z" fill="black"/>
</svg>
