<svg width="7" height="6" viewBox="0 0 7 6" fill="none" xmlns="http://www.w3.org/2000/svg">
<path d="M3.0625 5.25C3.0625 5.25 2.625 5.25 2.625 4.8125C2.625 4.375 3.0625 3.0625 4.8125 3.0625C6.5625 3.0625 7 4.375 7 4.8125C7 5.25 6.5625 5.25 6.5625 5.25H3.0625ZM4.8125 2.625C5.1606 2.625 5.49444 2.48672 5.74058 2.24058C5.98672 1.99444 6.125 1.6606 6.125 1.3125C6.125 0.964403 5.98672 0.630564 5.74058 0.384422C5.49444 0.138281 5.1606 0 4.8125 0C4.4644 0 4.13056 0.138281 3.88442 0.384422C3.63828 0.630564 3.5 0.964403 3.5 1.3125C3.5 1.6606 3.63828 1.99444 3.88442 2.24058C4.13056 2.48672 4.4644 2.625 4.8125 2.625Z" fill="#878787"/>
<path fill-rule="evenodd" clip-rule="evenodd" d="M2.282 5.25C2.21714 5.11342 2.1848 4.96368 2.1875 4.8125C2.1875 4.21969 2.485 3.60938 3.0345 3.185C2.76023 3.10049 2.47448 3.05917 2.1875 3.0625C0.4375 3.0625 0 4.375 0 4.8125C0 5.25 0.4375 5.25 0.4375 5.25H2.282Z" fill="#878787"/>
<path d="M1.96875 2.625C2.25883 2.625 2.53703 2.50977 2.74215 2.30465C2.94727 2.09953 3.0625 1.82133 3.0625 1.53125C3.0625 1.24117 2.94727 0.96297 2.74215 0.757852C2.53703 0.552734 2.25883 0.4375 1.96875 0.4375C1.67867 0.4375 1.40047 0.552734 1.19535 0.757852C0.990234 0.96297 0.875 1.24117 0.875 1.53125C0.875 1.82133 0.990234 2.09953 1.19535 2.30465C1.40047 2.50977 1.67867 2.625 1.96875 2.625Z" fill="#878787"/>
</svg>
